<svg width="46" height="46" viewBox="0 0 46 46" fill="none" xmlns="http://www.w3.org/2000/svg">
<g clip-path="url(#clip0_603:2)">
<circle cx="23.0005" cy="22.9995" r="16.8667" fill="#F3BC2F"/>
<path d="M0 22.9674C0 10.244 10.3092 0 23.0326 0C35.756 0 46.0326 10.3092 46 23.0326C46 35.756 35.6908 46.0326 22.9674 46C10.244 46 0 35.6908 0 22.9674ZM2.28369 23C2.28369 34.3858 11.5816 43.6837 23 43.7163C34.3858 43.7163 43.6511 34.4837 43.7163 23.0652C43.7489 11.6468 34.4511 2.34894 23.0326 2.28369C11.6468 2.25106 2.31631 11.5489 2.28369 23Z" fill="black"/>
<path d="M25.7041 32H22.0352V17.8574L17.6553 19.2158V16.2324L25.3105 13.4902H25.7041V32Z" fill="white"/>
</g>
<defs>
<clipPath id="clip0_603:2">
<rect width="46" height="46" fill="white"/>
</clipPath>
</defs>
</svg>
