<svg width="46" height="46" viewBox="0 0 46 46" fill="none" xmlns="http://www.w3.org/2000/svg">
<g clip-path="url(#clip0_603:7)">
<circle cx="23.0005" cy="22.9995" r="16.8667" fill="#F3BC2F"/>
<path d="M0 22.9674C0 10.244 10.3092 0 23.0326 0C35.756 0 46.0326 10.3092 46 23.0326C46 35.756 35.6908 46.0326 22.9674 46C10.244 46 0 35.6908 0 22.9674ZM2.28369 23C2.28369 34.3858 11.5816 43.6837 23 43.7163C34.3858 43.7163 43.6511 34.4837 43.7163 23.0652C43.7489 11.6468 34.4511 2.34894 23.0326 2.28369C11.6468 2.25106 2.31631 11.5489 2.28369 23Z" fill="black"/>
<path d="M29.4619 31H16.792V28.4863L22.7715 22.1133C23.5924 21.2161 24.1976 20.4333 24.5869 19.7646C24.9847 19.096 25.1836 18.4613 25.1836 17.8604C25.1836 17.0394 24.9762 16.3962 24.5615 15.9307C24.1468 15.4567 23.5544 15.2197 22.7842 15.2197C21.9548 15.2197 21.2988 15.5075 20.8164 16.083C20.3424 16.6501 20.1055 17.3991 20.1055 18.3301H16.4238C16.4238 17.2044 16.6904 16.1761 17.2236 15.2451C17.7653 14.3141 18.527 13.5863 19.5088 13.0615C20.4906 12.5283 21.6035 12.2617 22.8477 12.2617C24.752 12.2617 26.2288 12.7188 27.2783 13.6328C28.3363 14.5469 28.8652 15.8376 28.8652 17.5049C28.8652 18.4189 28.6283 19.3499 28.1543 20.2979C27.6803 21.2458 26.8678 22.3503 25.7168 23.6113L21.5146 28.042H29.4619V31Z" fill="white"/>
</g>
<defs>
<clipPath id="clip0_603:7">
<rect width="46" height="46" fill="white"/>
</clipPath>
</defs>
</svg>
