<svg width="46" height="46" viewBox="0 0 46 46" fill="none" xmlns="http://www.w3.org/2000/svg">
<g clip-path="url(#clip0_603:12)">
<circle cx="23.0005" cy="22.9995" r="16.8667" fill="#F3BC2F"/>
<path d="M0 22.9674C0 10.244 10.3092 0 23.0326 0C35.756 0 46.0326 10.3092 46 23.0326C46 35.756 35.6908 46.0326 22.9674 46C10.244 46 0 35.6908 0 22.9674ZM2.28369 23C2.28369 34.3858 11.5816 43.6837 23 43.7163C34.3858 43.7163 43.6511 34.4837 43.7163 23.0652C43.7489 11.6468 34.4511 2.34894 23.0326 2.28369C11.6468 2.25106 2.31631 11.5489 2.28369 23Z" fill="black"/>
<path d="M20.5244 20.1328H22.4795C23.4105 20.1328 24.1003 19.9001 24.5488 19.4346C24.9974 18.9691 25.2217 18.3512 25.2217 17.5811C25.2217 16.8363 24.9974 16.2565 24.5488 15.8418C24.1087 15.4271 23.4993 15.2197 22.7207 15.2197C22.0182 15.2197 21.43 15.4144 20.9561 15.8037C20.4821 16.1846 20.2451 16.6839 20.2451 17.3018H16.5762C16.5762 16.3369 16.8343 15.4736 17.3506 14.7119C17.8753 13.9417 18.6032 13.3408 19.5342 12.9092C20.4736 12.4775 21.5062 12.2617 22.6318 12.2617C24.5869 12.2617 26.1188 12.7314 27.2275 13.6709C28.3363 14.6019 28.8906 15.8883 28.8906 17.5303C28.8906 18.3766 28.6325 19.1553 28.1162 19.8662C27.5999 20.5771 26.9229 21.123 26.085 21.5039C27.126 21.8763 27.9004 22.4349 28.4082 23.1797C28.9245 23.9245 29.1826 24.8047 29.1826 25.8203C29.1826 27.4622 28.5817 28.7783 27.3799 29.7686C26.1865 30.7588 24.6038 31.2539 22.6318 31.2539C20.7868 31.2539 19.276 30.7673 18.0996 29.7939C16.9316 28.8206 16.3477 27.5342 16.3477 25.9346H20.0166C20.0166 26.6286 20.2747 27.1956 20.791 27.6357C21.3158 28.0758 21.959 28.2959 22.7207 28.2959C23.5924 28.2959 24.2738 28.0674 24.7646 27.6104C25.264 27.1449 25.5137 26.5312 25.5137 25.7695C25.5137 23.9245 24.498 23.002 22.4668 23.002H20.5244V20.1328Z" fill="white"/>
</g>
<defs>
<clipPath id="clip0_603:12">
<rect width="46" height="46" fill="white"/>
</clipPath>
</defs>
</svg>
